<!DOCTYPE svg PUBLIC "-//W3C//DTD SVG 1.1//EN" "http://www.w3.org/Graphics/SVG/1.1/DTD/svg11.dtd">
<!-- Uploaded to: SVG Repo, www.svgrepo.com, Transformed by: SVG Repo Mixer Tools -->
<svg fill="#1a0f02" height="800px" width="800px" version="1.1" id="Capa_1" xmlns="http://www.w3.org/2000/svg" xmlns:xlink="http://www.w3.org/1999/xlink" viewBox="0 0 420 420" xml:space="preserve">
<g id="SVGRepo_bgCarrier" stroke-width="0"/>
<g id="SVGRepo_tracerCarrier" stroke-linecap="round" stroke-linejoin="round"/>
<g id="SVGRepo_iconCarrier"> <g> <path d="M380.95,79.002c-0.024-0.243-0.066-0.481-0.107-0.719c-0.015-0.083-0.022-0.168-0.038-0.251 c-0.057-0.287-0.131-0.568-0.213-0.846c-0.01-0.033-0.016-0.067-0.025-0.099c-0.086-0.282-0.188-0.558-0.297-0.829 c-0.012-0.03-0.021-0.061-0.033-0.09c-0.106-0.256-0.227-0.504-0.354-0.748c-0.023-0.045-0.042-0.093-0.066-0.138 c-0.118-0.219-0.249-0.429-0.382-0.638c-0.043-0.067-0.08-0.138-0.124-0.204c-0.126-0.188-0.265-0.366-0.403-0.544 c-0.062-0.08-0.117-0.164-0.182-0.243c-0.162-0.197-0.337-0.383-0.513-0.567c-0.049-0.051-0.091-0.106-0.141-0.156l-70-70 c-0.047-0.047-0.1-0.088-0.148-0.134c-0.187-0.179-0.375-0.356-0.575-0.52c-0.074-0.061-0.155-0.114-0.231-0.172 c-0.183-0.142-0.365-0.284-0.557-0.412c-0.062-0.042-0.128-0.076-0.191-0.116c-0.213-0.136-0.427-0.27-0.651-0.389 c-0.042-0.022-0.086-0.04-0.128-0.062c-0.247-0.128-0.498-0.25-0.757-0.358c-0.028-0.012-0.058-0.02-0.086-0.032 c-0.272-0.11-0.549-0.212-0.833-0.298c-0.033-0.01-0.068-0.016-0.102-0.026c-0.277-0.081-0.557-0.155-0.843-0.212 c-0.084-0.017-0.17-0.024-0.254-0.039c-0.237-0.041-0.474-0.083-0.716-0.107C301.668,0.017,301.335,0,301,0H49 c-5.522,0-10,4.477-10,10v400c0,5.523,4.478,10,10,10h322c5.522,0,10-4.477,10-10V80C381,79.665,380.983,79.332,380.95,79.002z M311,34.142L346.858,70H311V34.142z M59,400V20h232v60c0,5.523,4.478,10,10,10h60v310H59z"/> <path d="M129,154c0,5.523,4.478,10,10,10h64c5.522,0,10-4.477,10-10s-4.478-10-10-10h-64C133.478,144,129,148.477,129,154z"/> <path d="M201,104c0-16.542-13.458-30-30-30s-30,13.458-30,30s13.458,30,30,30S201,120.542,201,104z M161,104 c0-5.514,4.486-10,10-10s10,4.486,10,10s-4.486,10-10,10S161,109.514,161,104z"/> <path d="M99,204h144c5.522,0,10-4.477,10-10v-31.892c0-5.523-4.478-10-10-10s-10,4.477-10,10V184H109V60h124v68 c0,5.523,4.478,10,10,10s10-4.477,10-10V50c0-5.523-4.478-10-10-10H99c-5.522,0-10,4.477-10,10v144C89,199.523,93.478,204,99,204z"/> <path d="M321,234H99c-5.522,0-10,4.477-10,10s4.478,10,10,10h222c5.522,0,10-4.477,10-10S326.522,234,321,234z"/> <path d="M321,284H99c-5.522,0-10,4.477-10,10s4.478,10,10,10h222c5.522,0,10-4.477,10-10S326.522,284,321,284z"/> <path d="M321,334H99c-5.522,0-10,4.477-10,10s4.478,10,10,10h222c5.522,0,10-4.477,10-10S326.522,334,321,334z"/> </g> </g>
</svg>