{
    "asset" : {
        "generator" : "Khronos glTF Blender I/O v1.7.33",
        "version" : "2.0"
    },
    "scene" : 0,
    "scenes" : [
        {
            "name" : "Scene",
            "nodes" : [
                0
            ]
        }
    ],
    "nodes" : [
        {
            "mesh" : 0,
            "name" : "United Letters"
        }
    ],
    "meshes" : [
        {
            "name" : "Cube.007",
            "primitives" : [
                {
                    "attributes" : {
                        "POSITION" : 0,
                        "NORMAL" : 1,
                        "TEXCOORD_0" : 2
                    },
                    "indices" : 3
                }
            ]
        }
    ],
    "accessors" : [
        {
            "bufferView" : 0,
            "componentType" : 5126,
            "count" : 588,
            "max" : [
                2.444124698638916,
                0.7160753011703491,
                0.1999451220035553
            ],
            "min" : [
                -2.4418320655822754,
                -0.7159086465835571,
                -0.1999451220035553
            ],
            "type" : "VEC3"
        },
        {
            "bufferView" : 1,
            "componentType" : 5126,
            "count" : 588,
            "type" : "VEC3"
        },
        {
            "bufferView" : 2,
            "componentType" : 5126,
            "count" : 588,
            "type" : "VEC2"
        },
        {
            "bufferView" : 3,
            "componentType" : 5123,
            "count" : 1128,
            "type" : "SCALAR"
        }
    ],
    "bufferViews" : [
        {
            "buffer" : 0,
            "byteLength" : 7056,
            "byteOffset" : 0
        },
        {
            "buffer" : 0,
            "byteLength" : 7056,
            "byteOffset" : 7056
        },
        {
            "buffer" : 0,
            "byteLength" : 4704,
            "byteOffset" : 14112
        },
        {
            "buffer" : 0,
            "byteLength" : 2256,
            "byteOffset" : 18816
        }
    ],
    "buffers" : [
        {
            "byteLength" : 21072,
            "uri" : "data:application/octet-stream;base64,"
        }
    ]
}
