{
    "asset" : {
        "generator" : "Khronos glTF Blender I/O v1.7.33",
        "version" : "2.0"
    },
    "scene" : 0,
    "scenes" : [
        {
            "name" : "Scene",
            "nodes" : [
                0
            ]
        }
    ],
    "nodes" : [
        {
            "mesh" : 0,
            "name" : "United Letters",
            "scale" : [
                1,
                1,
                0.20000004768371582
            ],
            "translation" : [
                0.05607414245605469,
                -0.013323694467544556,
                0
            ]
        }
    ],
    "meshes" : [
        {
            "name" : "Cube.007",
            "primitives" : [
                {
                    "attributes" : {
                        "POSITION" : 0,
                        "NORMAL" : 1,
                        "TEXCOORD_0" : 2
                    },
                    "indices" : 3
                }
            ]
        }
    ],
    "accessors" : [
        {
            "bufferView" : 0,
            "componentType" : 5126,
            "count" : 51584,
            "max" : [
                2.3885231018066406,
                0.7297487854957581,
                0.9999943971633911
            ],
            "min" : [
                -2.4983785152435303,
                -0.7030425667762756,
                -1.0000057220458984
            ],
            "type" : "VEC3"
        },
        {
            "bufferView" : 1,
            "componentType" : 5126,
            "count" : 51584,
            "type" : "VEC3"
        },
        {
            "bufferView" : 2,
            "componentType" : 5126,
            "count" : 51584,
            "type" : "VEC2"
        },
        {
            "bufferView" : 3,
            "componentType" : 5123,
            "count" : 77376,
            "type" : "SCALAR"
        }
    ],
    "bufferViews" : [
        {
            "buffer" : 0,
            "byteLength" : 619008,
            "byteOffset" : 0
        },
        {
            "buffer" : 0,
            "byteLength" : 619008,
            "byteOffset" : 619008
        },
        {
            "buffer" : 0,
            "byteLength" : 412672,
            "byteOffset" : 1238016
        },
        {
            "buffer" : 0,
            "byteLength" : 154752,
            "byteOffset" : 1650688
        }
    ],
    "buffers" : [
        {
            "byteLength" : 1805440,
            "uri" : "data:application/octet-stream;base64,"
        }
    ]
}
