{
	"asset":{
		"generator":"Khronos glTF Blender I/O v4.0.44",
		"version":"2.0"
	},
	"scene":0,
	"scenes":[
		{
			"name":"Scene",
			"nodes":[
				0,
				1,
				2,
				3,
				4,
				5,
				6,
				7,
				8,
				9,
				10,
				11,
				12,
				13,
				14
			]
		}
	],
	"nodes":[
		{
			"mesh":0,
			"name":"United Path"
		},
		{
			"mesh":1,
			"name":"2-Profile"
		},
		{
			"mesh":2,
			"name":"3-Computer"
		},
		{
			"mesh":3,
			"name":"3-ComputerScreen"
		},
		{
			"mesh":4,
			"name":"7-GraduationHat"
		},
		{
			"mesh":5,
			"name":"7-GraduationHatThing"
		},
		{
			"mesh":6,
			"name":"8-Link"
		},
		{
			"mesh":7,
			"name":"1-Letters"
		},
		{
			"mesh":8,
			"name":"3-ComputerScreenLetters"
		},
		{
			"mesh":9,
			"name":"5-RumoLogo"
		},
		{
			"mesh":10,
			"name":"6-MouseCursor"
		},
		{
			"mesh":11,
			"name":"4-Avanade2"
		},
		{
			"mesh":12,
			"name":"4-Avanade1"
		},
		{
			"mesh":13,
			"name":"4-Avanade3"
		},
		{
			"mesh":14,
			"name":"4-Avanade4"
		}
	],
	"materials":[
		{
			"doubleSided":true,
			"name":"None",
			"pbrMetallicRoughness":{
				"baseColorFactor":[
					0.800000011920929,
					0.800000011920929,
					0.800000011920929,
					1
				],
				"metallicFactor":0,
				"roughnessFactor":0.5
			}
		}
	],
	"meshes":[
		{
			"name":"Cube.002",
			"primitives":[
				{
					"attributes":{
						"POSITION":0,
						"NORMAL":1,
						"TEXCOORD_0":2
					},
					"indices":3
				}
			]
		},
		{
			"name":"Cube.001",
			"primitives":[
				{
					"attributes":{
						"POSITION":4,
						"NORMAL":5,
						"TEXCOORD_0":6
					},
					"indices":7
				}
			]
		},
		{
			"name":"Cube.003",
			"primitives":[
				{
					"attributes":{
						"POSITION":8,
						"NORMAL":9,
						"TEXCOORD_0":10
					},
					"indices":11
				}
			]
		},
		{
			"name":"Cube.017",
			"primitives":[
				{
					"attributes":{
						"POSITION":12,
						"NORMAL":13,
						"TEXCOORD_0":14
					},
					"indices":15
				}
			]
		},
		{
			"name":"Cylinder.004",
			"primitives":[
				{
					"attributes":{
						"POSITION":16,
						"NORMAL":17,
						"TEXCOORD_0":18
					},
					"indices":19
				}
			]
		},
		{
			"name":"Cylinder.005",
			"primitives":[
				{
					"attributes":{
						"POSITION":20,
						"NORMAL":21,
						"TEXCOORD_0":22
					},
					"indices":23
				}
			]
		},
		{
			"name":"Torus.001",
			"primitives":[
				{
					"attributes":{
						"POSITION":24,
						"NORMAL":25,
						"TEXCOORD_0":26
					},
					"indices":27
				}
			]
		},
		{
			"name":"United_Letters_Cube.007",
			"primitives":[
				{
					"attributes":{
						"POSITION":28,
						"NORMAL":29,
						"TEXCOORD_0":30
					},
					"indices":31,
					"material":0
				}
			]
		},
		{
			"name":"United_Letters_Cube.002",
			"primitives":[
				{
					"attributes":{
						"POSITION":32,
						"NORMAL":33,
						"TEXCOORD_0":34
					},
					"indices":35,
					"material":0
				}
			]
		},
		{
			"name":"Cylinder.006",
			"primitives":[
				{
					"attributes":{
						"POSITION":36,
						"NORMAL":37,
						"TEXCOORD_0":38
					},
					"indices":39
				}
			]
		},
		{
			"name":"Cube.004",
			"primitives":[
				{
					"attributes":{
						"POSITION":40,
						"NORMAL":41,
						"TEXCOORD_0":42
					},
					"indices":43
				}
			]
		},
		{
			"name":"Cube",
			"primitives":[
				{
					"attributes":{
						"POSITION":44,
						"NORMAL":45,
						"TEXCOORD_0":46
					},
					"indices":47
				}
			]
		},
		{
			"name":"Cube.005",
			"primitives":[
				{
					"attributes":{
						"POSITION":48,
						"NORMAL":49,
						"TEXCOORD_0":50
					},
					"indices":51
				}
			]
		},
		{
			"name":"Cube.006",
			"primitives":[
				{
					"attributes":{
						"POSITION":52,
						"NORMAL":53,
						"TEXCOORD_0":54
					},
					"indices":55
				}
			]
		},
		{
			"name":"Cube.007",
			"primitives":[
				{
					"attributes":{
						"POSITION":56,
						"NORMAL":57,
						"TEXCOORD_0":58
					},
					"indices":59
				}
			]
		}
	],
	"accessors":[
		{
			"bufferView":0,
			"componentType":5126,
			"count":1584,
			"max":[
				127.4698486328125,
				207.88462829589844,
				209.05023193359375
			],
			"min":[
				-116.66246032714844,
				-194.77923583984375,
				-203.0521697998047
			],
			"type":"VEC3"
		},
		{
			"bufferView":1,
			"componentType":5126,
			"count":1584,
			"type":"VEC3"
		},
		{
			"bufferView":2,
			"componentType":5126,
			"count":1584,
			"type":"VEC2"
		},
		{
			"bufferView":3,
			"componentType":5123,
			"count":2316,
			"type":"SCALAR"
		},
		{
			"bufferView":4,
			"componentType":5126,
			"count":480,
			"max":[
				133.235595703125,
				163.50521850585938,
				137.73764038085938
			],
			"min":[
				109.89797973632812,
				134.7513885498047,
				111.82810974121094
			],
			"type":"VEC3"
		},
		{
			"bufferView":5,
			"componentType":5126,
			"count":480,
			"type":"VEC3"
		},
		{
			"bufferView":6,
			"componentType":5126,
			"count":480,
			"type":"VEC2"
		},
		{
			"bufferView":7,
			"componentType":5123,
			"count":588,
			"type":"SCALAR"
		},
		{
			"bufferView":8,
			"componentType":5126,
			"count":164,
			"max":[
				22.468412399291992,
				42.07186508178711,
				240.10211181640625
			],
			"min":[
				-9.490800857543945,
				33.0737190246582,
				209.06898498535156
			],
			"type":"VEC3"
		},
		{
			"bufferView":9,
			"componentType":5126,
			"count":164,
			"type":"VEC3"
		},
		{
			"bufferView":10,
			"componentType":5126,
			"count":164,
			"type":"VEC2"
		},
		{
			"bufferView":11,
			"componentType":5123,
			"count":222,
			"type":"SCALAR"
		},
		{
			"bufferView":12,
			"componentType":5126,
			"count":4,
			"max":[
				21.64464569091797,
				38.79230499267578,
				239.56381225585938
			],
			"min":[
				-8.656251907348633,
				35.499969482421875,
				221.64208984375
			],
			"type":"VEC3"
		},
		{
			"bufferView":13,
			"componentType":5126,
			"count":4,
			"type":"VEC3"
		},
		{
			"bufferView":14,
			"componentType":5126,
			"count":4,
			"type":"VEC2"
		},
		{
			"bufferView":15,
			"componentType":5123,
			"count":6,
			"type":"SCALAR"
		},
		{
			"bufferView":16,
			"componentType":5126,
			"count":550,
			"max":[
				26.086421966552734,
				-99.18865966796875,
				-182.14869689941406
			],
			"min":[
				-11.772998809814453,
				-128.8157958984375,
				-207.5874481201172
			],
			"type":"VEC3"
		},
		{
			"bufferView":17,
			"componentType":5126,
			"count":550,
			"type":"VEC3"
		},
		{
			"bufferView":18,
			"componentType":5126,
			"count":550,
			"type":"VEC2"
		},
		{
			"bufferView":19,
			"componentType":5123,
			"count":672,
			"type":"SCALAR"
		},
		{
			"bufferView":20,
			"componentType":5126,
			"count":342,
			"max":[
				19.388717651367188,
				-93.23979949951172,
				-197.25384521484375
			],
			"min":[
				10.616498947143555,
				-111.1552963256836,
				-208.6820526123047
			],
			"type":"VEC3"
		},
		{
			"bufferView":21,
			"componentType":5126,
			"count":342,
			"type":"VEC3"
		},
		{
			"bufferView":22,
			"componentType":5126,
			"count":342,
			"type":"VEC2"
		},
		{
			"bufferView":23,
			"componentType":5123,
			"count":480,
			"type":"SCALAR"
		},
		{
			"bufferView":24,
			"componentType":5126,
			"count":5354,
			"max":[
				134.09628295898438,
				37.30853271484375,
				-187.56756591796875
			],
			"min":[
				103.12854766845703,
				29.965803146362305,
				-208.39405822753906
			],
			"type":"VEC3"
		},
		{
			"bufferView":25,
			"componentType":5126,
			"count":5354,
			"type":"VEC3"
		},
		{
			"bufferView":26,
			"componentType":5126,
			"count":5354,
			"type":"VEC2"
		},
		{
			"bufferView":27,
			"componentType":5123,
			"count":6624,
			"type":"SCALAR"
		},
		{
			"bufferView":28,
			"componentType":5126,
			"count":702,
			"max":[
				23.463768005371094,
				227.1395263671875,
				1.9896304607391357
			],
			"min":[
				-25.40741729736328,
				212.78053283691406,
				-2.0735762119293213
			],
			"type":"VEC3"
		},
		{
			"bufferView":29,
			"componentType":5126,
			"count":702,
			"type":"VEC3"
		},
		{
			"bufferView":30,
			"componentType":5126,
			"count":702,
			"type":"VEC2"
		},
		{
			"bufferView":31,
			"componentType":5123,
			"count":1128,
			"type":"SCALAR"
		},
		{
			"bufferView":32,
			"componentType":5126,
			"count":140,
			"max":[
				19.982837677001953,
				39.30950927734375,
				235.0326690673828
			],
			"min":[
				-7.101783275604248,
				34.531185150146484,
				226.13209533691406
			],
			"type":"VEC3"
		},
		{
			"bufferView":33,
			"componentType":5126,
			"count":140,
			"type":"VEC3"
		},
		{
			"bufferView":34,
			"componentType":5126,
			"count":140,
			"type":"VEC2"
		},
		{
			"bufferView":35,
			"componentType":5123,
			"count":180,
			"type":"SCALAR"
		},
		{
			"bufferView":36,
			"componentType":5126,
			"count":517,
			"max":[
				-86.76041412353516,
				-180.8270721435547,
				85.30853271484375
			],
			"min":[
				-120.42494201660156,
				-211.51739501953125,
				62.69350051879883
			],
			"type":"VEC3"
		},
		{
			"bufferView":37,
			"componentType":5126,
			"count":517,
			"type":"VEC3"
		},
		{
			"bufferView":38,
			"componentType":5126,
			"count":517,
			"type":"VEC2"
		},
		{
			"bufferView":39,
			"componentType":5123,
			"count":900,
			"type":"SCALAR"
		},
		{
			"bufferView":40,
			"componentType":5126,
			"count":42,
			"max":[
				-100.85762023925781,
				-171.70053100585938,
				-74.1494369506836
			],
			"min":[
				-132.63446044921875,
				-189.46051025390625,
				-86.0269546508789
			],
			"type":"VEC3"
		},
		{
			"bufferView":41,
			"componentType":5126,
			"count":42,
			"type":"VEC3"
		},
		{
			"bufferView":42,
			"componentType":5126,
			"count":42,
			"type":"VEC2"
		},
		{
			"bufferView":43,
			"componentType":5123,
			"count":72,
			"type":"SCALAR"
		},
		{
			"bufferView":44,
			"componentType":5126,
			"count":264,
			"max":[
				-94.48898315429688,
				-94.37297058105469,
				186.6386260986328
			],
			"min":[
				-125.82671356201172,
				-105.80073547363281,
				163.04949951171875
			],
			"type":"VEC3"
		},
		{
			"bufferView":45,
			"componentType":5126,
			"count":264,
			"type":"VEC3"
		},
		{
			"bufferView":46,
			"componentType":5126,
			"count":264,
			"type":"VEC2"
		},
		{
			"bufferView":47,
			"componentType":5123,
			"count":516,
			"type":"SCALAR"
		},
		{
			"bufferView":48,
			"componentType":5126,
			"count":192,
			"max":[
				-94.34689331054688,
				-94.31560516357422,
				180.42413330078125
			],
			"min":[
				-125.68462371826172,
				-103.02893829345703,
				163.05772399902344
			],
			"type":"VEC3"
		},
		{
			"bufferView":49,
			"componentType":5126,
			"count":192,
			"type":"VEC3"
		},
		{
			"bufferView":50,
			"componentType":5126,
			"count":192,
			"type":"VEC2"
		},
		{
			"bufferView":51,
			"componentType":5123,
			"count":372,
			"type":"SCALAR"
		},
		{
			"bufferView":52,
			"componentType":5126,
			"count":216,
			"max":[
				-94.63104248046875,
				-96.11348724365234,
				181.52053833007812
			],
			"min":[
				-125.96878051757812,
				-100.55207061767578,
				167.3948974609375
			],
			"type":"VEC3"
		},
		{
			"bufferView":53,
			"componentType":5126,
			"count":216,
			"type":"VEC3"
		},
		{
			"bufferView":54,
			"componentType":5126,
			"count":216,
			"type":"VEC2"
		},
		{
			"bufferView":55,
			"componentType":5123,
			"count":420,
			"type":"SCALAR"
		},
		{
			"bufferView":56,
			"componentType":5126,
			"count":312,
			"max":[
				-94.77306365966797,
				-94.91633605957031,
				190.38522338867188
			],
			"min":[
				-126.11079406738281,
				-106.31063079833984,
				168.00445556640625
			],
			"type":"VEC3"
		},
		{
			"bufferView":57,
			"componentType":5126,
			"count":312,
			"type":"VEC3"
		},
		{
			"bufferView":58,
			"componentType":5126,
			"count":312,
			"type":"VEC2"
		},
		{
			"bufferView":59,
			"componentType":5123,
			"count":612,
			"type":"SCALAR"
		}
	],
	"bufferViews":[
		{
			"buffer":0,
			"byteLength":19008,
			"byteOffset":0,
			"target":34962
		},
		{
			"buffer":0,
			"byteLength":19008,
			"byteOffset":19008,
			"target":34962
		},
		{
			"buffer":0,
			"byteLength":12672,
			"byteOffset":38016,
			"target":34962
		},
		{
			"buffer":0,
			"byteLength":4632,
			"byteOffset":50688,
			"target":34963
		},
		{
			"buffer":0,
			"byteLength":5760,
			"byteOffset":55320,
			"target":34962
		},
		{
			"buffer":0,
			"byteLength":5760,
			"byteOffset":61080,
			"target":34962
		},
		{
			"buffer":0,
			"byteLength":3840,
			"byteOffset":66840,
			"target":34962
		},
		{
			"buffer":0,
			"byteLength":1176,
			"byteOffset":70680,
			"target":34963
		},
		{
			"buffer":0,
			"byteLength":1968,
			"byteOffset":71856,
			"target":34962
		},
		{
			"buffer":0,
			"byteLength":1968,
			"byteOffset":73824,
			"target":34962
		},
		{
			"buffer":0,
			"byteLength":1312,
			"byteOffset":75792,
			"target":34962
		},
		{
			"buffer":0,
			"byteLength":444,
			"byteOffset":77104,
			"target":34963
		},
		{
			"buffer":0,
			"byteLength":48,
			"byteOffset":77548,
			"target":34962
		},
		{
			"buffer":0,
			"byteLength":48,
			"byteOffset":77596,
			"target":34962
		},
		{
			"buffer":0,
			"byteLength":32,
			"byteOffset":77644,
			"target":34962
		},
		{
			"buffer":0,
			"byteLength":12,
			"byteOffset":77676,
			"target":34963
		},
		{
			"buffer":0,
			"byteLength":6600,
			"byteOffset":77688,
			"target":34962
		},
		{
			"buffer":0,
			"byteLength":6600,
			"byteOffset":84288,
			"target":34962
		},
		{
			"buffer":0,
			"byteLength":4400,
			"byteOffset":90888,
			"target":34962
		},
		{
			"buffer":0,
			"byteLength":1344,
			"byteOffset":95288,
			"target":34963
		},
		{
			"buffer":0,
			"byteLength":4104,
			"byteOffset":96632,
			"target":34962
		},
		{
			"buffer":0,
			"byteLength":4104,
			"byteOffset":100736,
			"target":34962
		},
		{
			"buffer":0,
			"byteLength":2736,
			"byteOffset":104840,
			"target":34962
		},
		{
			"buffer":0,
			"byteLength":960,
			"byteOffset":107576,
			"target":34963
		},
		{
			"buffer":0,
			"byteLength":64248,
			"byteOffset":108536,
			"target":34962
		},
		{
			"buffer":0,
			"byteLength":64248,
			"byteOffset":172784,
			"target":34962
		},
		{
			"buffer":0,
			"byteLength":42832,
			"byteOffset":237032,
			"target":34962
		},
		{
			"buffer":0,
			"byteLength":13248,
			"byteOffset":279864,
			"target":34963
		},
		{
			"buffer":0,
			"byteLength":8424,
			"byteOffset":293112,
			"target":34962
		},
		{
			"buffer":0,
			"byteLength":8424,
			"byteOffset":301536,
			"target":34962
		},
		{
			"buffer":0,
			"byteLength":5616,
			"byteOffset":309960,
			"target":34962
		},
		{
			"buffer":0,
			"byteLength":2256,
			"byteOffset":315576,
			"target":34963
		},
		{
			"buffer":0,
			"byteLength":1680,
			"byteOffset":317832,
			"target":34962
		},
		{
			"buffer":0,
			"byteLength":1680,
			"byteOffset":319512,
			"target":34962
		},
		{
			"buffer":0,
			"byteLength":1120,
			"byteOffset":321192,
			"target":34962
		},
		{
			"buffer":0,
			"byteLength":360,
			"byteOffset":322312,
			"target":34963
		},
		{
			"buffer":0,
			"byteLength":6204,
			"byteOffset":322672,
			"target":34962
		},
		{
			"buffer":0,
			"byteLength":6204,
			"byteOffset":328876,
			"target":34962
		},
		{
			"buffer":0,
			"byteLength":4136,
			"byteOffset":335080,
			"target":34962
		},
		{
			"buffer":0,
			"byteLength":1800,
			"byteOffset":339216,
			"target":34963
		},
		{
			"buffer":0,
			"byteLength":504,
			"byteOffset":341016,
			"target":34962
		},
		{
			"buffer":0,
			"byteLength":504,
			"byteOffset":341520,
			"target":34962
		},
		{
			"buffer":0,
			"byteLength":336,
			"byteOffset":342024,
			"target":34962
		},
		{
			"buffer":0,
			"byteLength":144,
			"byteOffset":342360,
			"target":34963
		},
		{
			"buffer":0,
			"byteLength":3168,
			"byteOffset":342504,
			"target":34962
		},
		{
			"buffer":0,
			"byteLength":3168,
			"byteOffset":345672,
			"target":34962
		},
		{
			"buffer":0,
			"byteLength":2112,
			"byteOffset":348840,
			"target":34962
		},
		{
			"buffer":0,
			"byteLength":1032,
			"byteOffset":350952,
			"target":34963
		},
		{
			"buffer":0,
			"byteLength":2304,
			"byteOffset":351984,
			"target":34962
		},
		{
			"buffer":0,
			"byteLength":2304,
			"byteOffset":354288,
			"target":34962
		},
		{
			"buffer":0,
			"byteLength":1536,
			"byteOffset":356592,
			"target":34962
		},
		{
			"buffer":0,
			"byteLength":744,
			"byteOffset":358128,
			"target":34963
		},
		{
			"buffer":0,
			"byteLength":2592,
			"byteOffset":358872,
			"target":34962
		},
		{
			"buffer":0,
			"byteLength":2592,
			"byteOffset":361464,
			"target":34962
		},
		{
			"buffer":0,
			"byteLength":1728,
			"byteOffset":364056,
			"target":34962
		},
		{
			"buffer":0,
			"byteLength":840,
			"byteOffset":365784,
			"target":34963
		},
		{
			"buffer":0,
			"byteLength":3744,
			"byteOffset":366624,
			"target":34962
		},
		{
			"buffer":0,
			"byteLength":3744,
			"byteOffset":370368,
			"target":34962
		},
		{
			"buffer":0,
			"byteLength":2496,
			"byteOffset":374112,
			"target":34962
		},
		{
			"buffer":0,
			"byteLength":1224,
			"byteOffset":376608,
			"target":34963
		}
	],
	"buffers":[
		{
			"byteLength":377832,
			"uri":"Path.bin"
		}
	]
}
